<svg xmlns="http://www.w3.org/2000/svg" version="1.1" xmlns:xlink="http://www.w3.org/1999/xlink" xmlns:svgjs="http://svgjs.dev/svgjs" width="2000" height="277" viewBox="0 0 2000 277"><g transform="matrix(1,0,0,1,-1.2121212121212466,-1.6304261326621656)"><svg viewBox="0 0 396 55" data-background-color="#ffffff" preserveAspectRatio="xMidYMid meet" height="277" width="2000" xmlns="http://www.w3.org/2000/svg" xmlns:xlink="http://www.w3.org/1999/xlink"><g id="tight-bounds" transform="matrix(1,0,0,1,0.2400000000000091,0.32373082056469116)"><svg viewBox="0 0 395.52 54.35253835887064" height="54.35253835887064" width="395.52"><g><svg viewBox="0 0 505.16428916087347 69.41990646275282" height="54.35253835887064" width="395.52"><g><rect width="6.229212742442308" height="69.41990646275282" x="87.10823677852984" y="0" fill="#000000" opacity="1" stroke-width="0" stroke="transparent" fill-opacity="1" class="rect-yte-0" data-fill-palette-color="primary" rx="1%" id="yte-0" data-palette-color="#222222"></rect></g><g transform="matrix(1,0,0,1,109.64428916087348,0.17268633448445314)"><svg viewBox="0 0 395.52 69.07453379378391" height="69.07453379378391" width="395.52"><g id="textblocktransform"><svg viewBox="0 0 395.52 69.07453379378391" height="69.07453379378391" width="395.52" id="textblock"><g><svg viewBox="0 0 395.52 69.07453379378391" height="69.07453379378391" width="395.52"><g transform="matrix(1,0,0,1,0,0)"><svg width="395.52" viewBox="1.25 -35.05 202.68 35.4" height="69.07453379378391" data-palette-color="#222222"><path d="M14.65 0.2L14.65 0.2Q12.65 0.2 11-0.68 9.35-1.55 8.3-3.25L8.3-3.25Q8.25-2.3 7.6-1.5 6.95-0.7 5.15-0.7L5.15-0.7Q3.15-0.7 2.2-1.8 1.25-2.9 1.25-4.7L1.25-4.7Q1.25-5.8 1.55-7.88 1.85-9.95 2.27-12.55 2.7-15.15 3.13-17.95 3.55-20.75 3.85-23.4 4.15-26.05 4.15-28.15L4.15-28.15Q4.15-29.55 4-30.6 3.85-31.65 3.45-32.25L3.45-32.25 3.45-32.55Q4.6-33.8 5.85-34.43 7.1-35.05 8.25-35.05L8.25-35.05Q9.95-35.05 11.15-33.7 12.35-32.35 12.35-29.4L12.35-29.4Q12.35-27.95 12.05-25.33 11.75-22.7 11.3-20.1L11.3-20.1Q13.1-22.65 15.13-24 17.15-25.35 19.05-25.35L19.05-25.35Q21.6-25.35 23.4-22.93 25.2-20.5 25.2-15.6L25.2-15.6Q25.2-12.7 24.53-9.88 23.85-7.05 22.5-4.78 21.15-2.5 19.18-1.15 17.2 0.2 14.65 0.2ZM12.15-4.85L12.15-4.85Q13.75-4.85 14.88-6.25 16-7.65 16.57-9.83 17.15-12 17.15-14.3L17.15-14.3Q17.15-15.8 16.9-17.18 16.65-18.55 16.15-19.43 15.65-20.3 14.85-20.3L14.85-20.3Q13.45-20.3 11.68-17.03 9.9-13.75 8.9-7.75L8.9-7.75Q9.8-4.85 12.15-4.85ZM38.85 0.35L38.85 0.35Q35.1 0.35 32.65-1.15 30.2-2.65 29.02-5.13 27.85-7.6 27.85-10.4L27.85-10.4Q27.85-13.05 28.82-15.7 29.8-18.35 31.67-20.53 33.55-22.7 36.25-24.03 38.95-25.35 42.45-25.35L42.45-25.35Q46.2-25.35 48.62-23.83 51.05-22.3 52.22-19.8 53.4-17.3 53.4-14.45L53.4-14.45Q53.4-11.85 52.45-9.22 51.5-6.6 49.62-4.42 47.75-2.25 45.05-0.95 42.35 0.35 38.85 0.35ZM40.2-3.9L40.2-3.9Q41.55-3.9 42.45-5.3 43.35-6.7 43.8-8.88 44.25-11.05 44.25-13.3L44.25-13.3Q44.25-15.3 43.87-17.07 43.5-18.85 42.75-19.98 42-21.1 40.8-21.1L40.8-21.1Q39.5-21.1 38.57-19.7 37.65-18.3 37.2-16.15 36.75-14 36.75-11.7L36.75-11.7Q36.75-9.7 37.12-7.93 37.5-6.15 38.25-5.03 39-3.9 40.2-3.9ZM67.2 0.35L67.2 0.35Q63.45 0.35 61-1.15 58.55-2.65 57.37-5.13 56.2-7.6 56.2-10.4L56.2-10.4Q56.2-13.05 57.17-15.7 58.15-18.35 60.02-20.53 61.9-22.7 64.59-24.03 67.3-25.35 70.8-25.35L70.8-25.35Q74.55-25.35 76.97-23.83 79.4-22.3 80.57-19.8 81.75-17.3 81.75-14.45L81.75-14.45Q81.75-11.85 80.8-9.22 79.84-6.6 77.97-4.42 76.09-2.25 73.4-0.95 70.7 0.35 67.2 0.35ZM68.55-3.9L68.55-3.9Q69.9-3.9 70.8-5.3 71.7-6.7 72.15-8.88 72.59-11.05 72.59-13.3L72.59-13.3Q72.59-15.3 72.22-17.07 71.84-18.85 71.09-19.98 70.34-21.1 69.15-21.1L69.15-21.1Q67.84-21.1 66.92-19.7 66-18.3 65.55-16.15 65.09-14 65.09-11.7L65.09-11.7Q65.09-9.7 65.47-7.93 65.84-6.15 66.59-5.03 67.34-3.9 68.55-3.9ZM103.14 0.25L103.14 0.25Q101.49 0.25 100.04-0.53 98.59-1.3 97.69-2.8 96.79-4.3 96.79-6.4L96.79-6.4Q96.79-8.55 97.84-11.25L97.84-11.25Q98.64-11.65 99.74-12.5 100.84-13.35 101.69-14.43 102.54-15.5 102.54-16.55L102.54-16.55Q102.54-17.5 101.82-18.05 101.09-18.6 100.04-18.6L100.04-18.6Q98.74-18.6 97.59-17.8 96.44-17 95.57-15.73 94.69-14.45 94.22-12.98 93.74-11.5 93.74-10.15L93.74-10.15Q93.74-8.85 94.07-7.73 94.39-6.6 94.39-5.15L94.39-5.15Q94.39-2.9 93.19-1.35 91.99 0.2 89.64 0.2L89.64 0.2Q87.49 0.2 86.19-1.25 84.89-2.7 84.89-5.2L84.89-5.2Q84.89-6.5 85.22-8.65 85.54-10.8 86.04-13.4 86.54-16 87.02-18.78 87.49-21.55 87.82-24.13 88.14-26.7 88.14-28.75L88.14-28.75Q88.14-29.85 88.02-30.78 87.89-31.7 87.49-32.25L87.49-32.25 87.49-32.55Q88.59-33.8 89.89-34.4 91.19-35 92.44-35L92.44-35Q94.34-35 95.69-33.65 97.04-32.3 97.04-29.65L97.04-29.65Q97.04-28.25 96.67-26.25 96.29-24.25 95.77-22.05 95.24-19.85 94.69-17.85L94.69-17.85Q95.79-19.45 97.19-21.15 98.59-22.85 100.34-24.03 102.09-25.2 104.29-25.2L104.29-25.2Q106.84-25.2 108.29-23.58 109.74-21.95 109.74-19.7L109.74-19.7Q109.74-17.45 108.12-14.9 106.49-12.35 102.69-10.6L102.69-10.6Q103.34-9.15 104.49-8 105.64-6.85 107.02-6.23 108.39-5.6 109.59-5.6L109.59-5.6Q110.19-5.6 110.64-5.8L110.64-5.8 110.94-5.5Q109.69-2.6 107.52-1.18 105.34 0.25 103.14 0.25ZM130.64 0.25L130.64 0.25Q128.89 0.25 127.59-0.9 126.29-2.05 126.29-4.65L126.29-4.65Q126.29-4.9 126.29-5.15 126.29-5.4 126.34-5.65L126.34-5.65Q124.84-2.65 122.97-1.23 121.09 0.2 119.19 0.2L119.19 0.2Q117.44 0.2 115.89-1.03 114.34-2.25 113.39-4.65 112.44-7.05 112.44-10.45L112.44-10.45Q112.44-13.95 113.42-16.7 114.39-19.45 115.99-21.35 117.59-23.25 119.49-24.23 121.39-25.2 123.19-25.2L123.19-25.2Q125.19-25.2 126.79-23.98 128.39-22.75 128.99-20.1L128.99-20.1Q129.14-20.95 129.22-21.65 129.29-22.35 129.29-22.6L129.29-22.6Q129.34-23.95 130.67-24.6 131.99-25.25 133.59-25.25L133.59-25.25Q134.99-25.25 136.24-24.7 137.49-24.15 137.94-22.85L137.94-22.85 138.04-22.55Q137.44-21.2 136.84-19.3 136.24-17.4 135.74-15.33 135.24-13.25 134.94-11.28 134.64-9.3 134.64-7.8L134.64-7.8Q134.64-6.15 134.99-5.53 135.34-4.9 135.84-4.9L135.84-4.9Q136.69-4.9 137.39-6.1L137.39-6.1 137.79-5.9Q137.79-4.2 136.69-2.8 135.59-1.4 133.94-0.58 132.29 0.25 130.64 0.25ZM122.49-6.1L122.49-6.1Q123.79-6.1 125.37-8.43 126.94-10.75 128.09-15.1L128.09-15.1Q128.19-15.55 128.29-15.98 128.39-16.4 128.44-16.8L128.44-16.8Q127.64-18.65 126.77-19.43 125.89-20.2 125.04-20.2L125.04-20.2Q123.79-20.2 122.72-18.88 121.64-17.55 120.97-15.55 120.29-13.55 120.29-11.55L120.29-11.55Q120.29-8.8 120.92-7.45 121.54-6.1 122.49-6.1ZM150.29 0.35L150.29 0.35Q146.99 0.35 144.71-1.15 142.44-2.65 141.29-5.08 140.14-7.5 140.14-10.3L140.14-10.3Q140.14-12.95 141.16-15.6 142.19-18.25 144.19-20.48 146.19-22.7 149.06-24.03 151.94-25.35 155.69-25.35L155.69-25.35Q159.39-25.35 161.19-23.88 162.99-22.4 162.99-20.65L162.99-20.65Q162.99-18.8 161.14-17.25 159.29-15.7 155.74-15.7L155.74-15.7Q155.94-16.45 156.06-17.23 156.19-18 156.19-18.7L156.19-18.7Q156.19-19.75 155.74-20.48 155.29-21.2 154.14-21.2L154.14-21.2Q153.09-21.2 151.91-20.25 150.74-19.3 149.91-17.45 149.09-15.6 149.09-12.9L149.09-12.9Q149.09-10.25 149.96-8.6 150.84-6.95 152.24-6.23 153.64-5.5 155.19-5.5L155.19-5.5Q157.24-5.5 159.14-6.58 161.04-7.65 161.89-9.55L161.89-9.55 162.39-9.35Q162.39-6.75 161.21-4.93 160.04-3.1 158.19-1.93 156.34-0.75 154.24-0.2 152.14 0.35 150.29 0.35ZM170.79 0.2L170.79 0.2Q169.44 0.2 168.16-0.48 166.89-1.15 166.09-2.65 165.29-4.15 165.29-6.5L165.29-6.5Q165.29-8.6 165.86-11.43 166.44-14.25 167.16-17.3 167.89-20.35 168.44-23.25 168.99-26.15 168.94-28.4L168.94-28.4Q168.94-30.55 168.44-31.45L168.44-31.45 168.39-31.6Q168.94-33.2 170.34-34.1 171.74-35 173.29-35L173.29-35Q175.04-35 176.41-33.68 177.79-32.35 177.79-29.25L177.79-29.25Q177.79-27.6 177.39-25.33 176.99-23.05 176.44-20.48 175.89-17.9 175.31-15.4 174.74-12.9 174.34-10.8 173.94-8.7 173.94-7.35L173.94-7.35Q173.94-5.95 174.34-5.43 174.74-4.9 175.24-4.9L175.24-4.9Q175.79-4.9 176.29-5.33 176.79-5.75 176.94-6.1L176.94-6.1 177.34-6Q177.29-4.2 176.31-2.8 175.34-1.4 173.86-0.6 172.39 0.2 170.79 0.2ZM191.13 0.35L191.13 0.35Q187.48 0.35 185.08-1.13 182.68-2.6 181.48-5.03 180.28-7.45 180.28-10.25L180.28-10.25Q180.28-12.9 181.31-15.58 182.33-18.25 184.31-20.45 186.28-22.65 189.11-24 191.93-25.35 195.48-25.35L195.48-25.35Q199.88-25.35 201.91-23.38 203.93-21.4 203.93-18.6L203.93-18.6Q203.93-16.2 202.66-14.18 201.38-12.15 199.28-10.93 197.18-9.7 194.68-9.7L194.68-9.7Q193.38-9.7 192.03-10.1 190.68-10.5 189.38-11.35L189.38-11.35Q189.63-8.25 191.18-6.85 192.73-5.45 194.88-5.45L194.88-5.45Q196.38-5.45 197.88-6.03 199.38-6.6 200.66-7.53 201.93-8.45 202.63-9.5L202.63-9.5 202.98-9.25Q202.98-6.65 201.91-4.83 200.83-3 199.08-1.85 197.33-0.7 195.26-0.18 193.18 0.35 191.13 0.35ZM192.28-13.15L192.28-13.15Q193.88-13.15 194.88-14.08 195.88-15 196.38-16.25 196.88-17.5 196.88-18.45L196.88-18.45Q196.88-19.6 196.23-20.38 195.58-21.15 194.43-21.15L194.43-21.15Q193.53-21.15 192.46-20.5 191.38-19.85 190.53-18.28 189.68-16.7 189.43-13.9L189.43-13.9Q191.03-13.15 192.28-13.15Z" opacity="1" transform="matrix(1,0,0,1,0,0)" fill="#000000" class="wordmark-text-0" data-fill-palette-color="primary" id="text-0"></path></svg></g></svg></g></svg></g></svg></g><g transform="matrix(1,0,0,1,0,0.17268633448445314)"><svg viewBox="0 0 70.80139713862852 69.07453379378391" height="69.07453379378391" width="70.80139713862852"><g><svg xmlns="http://www.w3.org/2000/svg" xmlns:xlink="http://www.w3.org/1999/xlink" version="1.1" x="0" y="0" viewBox="9 10 82 80" style="enable-background:new 0 0 100 100;" xml:space="preserve" height="69.07453379378391" width="70.80139713862852" class="icon-icon-0" data-fill-palette-color="accent" id="icon-0"><g fill="#f500a2" data-fill-palette-color="accent"><path d="M81 10C75.5 10 71 14.5 71 20 71 21.4 71.3 22.6 71.8 23.8L54.5 41.1C53.1 40.4 51.6 40 50 40 44.5 40 40 44.5 40 50S44.5 60 50 60 60 55.5 60 50C60 47.6 59.1 45.3 57.7 43.6L74.1 27.2C75.9 28.9 78.3 30 81 30 86.5 30 91 25.5 91 20S86.5 10 81 10M50 56C46.7 56 44 53.3 44 50S46.7 44 50 44 56 46.7 56 50 53.3 56 50 56M81 26C77.7 26 75 23.3 75 20S77.7 14 81 14 87 16.7 87 20 84.3 26 81 26" fill="#000000" data-fill-palette-color="accent"></path><path d="M50 30C55.5 30 60 25.5 60 20S55.5 10 50 10 40 14.5 40 20 44.5 30 50 30M50 14C53.3 14 56 16.7 56 20S53.3 26 50 26 44 23.3 44 20 46.7 14 50 14" fill="#000000" data-fill-palette-color="accent"></path><path d="M81 40C75.5 40 71 44.5 71 50S75.5 60 81 60 91 55.5 91 50 86.5 40 81 40M81 56C77.7 56 75 53.3 75 50S77.7 44 81 44 87 46.7 87 50 84.3 56 81 56" fill="#000000" data-fill-palette-color="accent"></path><path d="M19 70C13.5 70 9 74.5 9 80S13.5 90 19 90 29 85.5 29 80 24.5 70 19 70M19 86C15.7 86 13 83.3 13 80S15.7 74 19 74 25 76.7 25 80 22.3 86 19 86" fill="#000000" data-fill-palette-color="accent"></path><path d="M81 70C76.2 70 72.1 73.4 71.2 78H59.8C58.9 73.4 54.8 70 50 70 46.9 70 44.1 71.4 42.3 73.7L25.8 57.3C27.7 55.5 29 52.9 29 50 29 45.2 25.6 41.1 21 40.2V29.8C25.6 28.9 29 24.8 29 20 29 14.5 24.5 10 19 10S9 14.5 9 20C9 24.8 12.4 28.9 17 29.8V40.2C12.4 41.1 9 45.2 9 50 9 55.5 13.5 60 19 60 20.2 60 21.3 59.8 22.3 59.4L40.3 77.4C40.1 78.3 40 79.1 40 80 40 85.5 44.5 90 50 90 54.8 90 58.9 86.6 59.8 82H71.2C72.1 86.6 76.2 90 81 90 86.5 90 91 85.5 91 80S86.5 70 81 70M13 20C13 16.7 15.7 14 19 14S25 16.7 25 20 22.3 26 19 26 13 23.3 13 20M13 50C13 46.7 15.7 44 19 44S25 46.7 25 50 22.3 56 19 56 13 53.3 13 50M50 86C46.7 86 44 83.3 44 80S46.7 74 50 74 56 76.7 56 80 53.3 86 50 86M81 86C77.7 86 75 83.3 75 80S77.7 74 81 74 87 76.7 87 80 84.3 86 81 86" fill="#000000" data-fill-palette-color="accent"></path></g></svg></g></svg></g></svg></g><defs></defs></svg><rect width="395.52" height="54.35253835887064" fill="none" stroke="none" visibility="hidden"></rect></g></svg></g></svg>